# xmcd CD database file
#
# Track frame offsets:
#	150
#	14930
#	36011
#	55293
#	75177
#	92793
#	110755
#	135350
#	152190
#	176753
#	194818
#	215845
#	236685
#	253642
#	275441
#	288598
#	303068
#
# Disc length: 4306 seconds
#
# Revision: 0
# Processed by: cddbd v1.5.2PL0 Copyright (c) Steve Scherf et al.
# Submitted via: CDex 1.51
#
DISCID=fa10d011
DTITLE=Tchibo Various - Good Morning Jazz
DYEAR=1900
DGENRE=Jazz
TTITLE0=Norah Jones - Thinking About You
TTITLE1=Joss Stone - Right To Be Wrong
TTITLE2=Amos Lee - Won't Let Me Go
TTITLE3=Al Green - No One Like You
TTITLE4=Coralie Clement - Samba De Mon Coeur Qui Bat
TTITLE5=EDC - Samba In Solitude
TTITLE6=Kurt Elling - Never Say Goodbye ( For Jodi)
TTITLE7=Eliane Elias- They Can't Take That Away From Me
TTITLE8=Dianne Reeves - Lovin' You
TTITLE9=Corinne Bailey Rae - Like A Star
TTITLE10=Raul Midon - Save My Life
TTITLE11=Susheela Raman - What Silence Said
TTITLE12=Molly Johnson - Melody
TTITLE13=Jamie Cullum - High and Dry
TTITLE14=Suzanne Vega - New York Is A Woman
TTITLE15=Priscilla Ahn - Leave The Light On
TTITLE16=Stacey Kent - What A Wonderful World
EXTD=
EXTT0=
EXTT1=
EXTT2=
EXTT3=
EXTT4=
EXTT5=
EXTT6=
EXTT7=
EXTT8=
EXTT9=
EXTT10=
EXTT11=
EXTT12=
EXTT13=
EXTT14=
EXTT15=
EXTT16=
PLAYORDER=
